PathFileType	4	(X/Y/Z)	C:/Users/beibeiliu/ov580/test_trc\sequence.40_training_dense_left.trc
DataRate	CameraRate	NumFrames	NumMarkers	Units	OrigDataRate	OrigDataStartFrame	OrigNumFrames
120	120	19	19	mm	120	201	400
Frame#	Time	ThumbCMC			ThumbMCP			ThumbIP			ThumbTip			IndexMCP			IndexPIP			IndexTip			MiddleMCP			MiddlePIP			MiddleTip			RingMCP			RingPIP			RingTip			PinkyMCP			PinkyPIP			PinkyTip			BackHand1			BackHand2			BackHand3	
		X0	Y0	Z0	X1	Y1	Z1	X2	Y2	Z2	X3	Y3	Z3	X4	Y4	Z4	X5	Y5	Z5	X6	Y6	Z6	X7	Y7	Z7	X8	Y8	Z8	X9	Y9	Z9	X10	Y10	Z10	X11	Y11	Z11	X12	Y12	Z12	X13	Y13	Z13	X14	Y14	Z14	X15	Y15	Z15	X16	Y16	Z16	X17	Y17	Z17	X18	Y18	Z18	
200	1.66667	-223.211	44.577	40.2623	-206.476	44.0635	15.0515	-196.536	41.6694	-7.00254	-191.221	29.9928	-23.6005	-245.336	23.2306	-19.0975	-233.081	23.613	-38.8714	-208.928	21.6417	-53.3853	-247.981	0.724453	-13.1298	-234.249	-0.705773	-43.489	-208.815	-7.28256	-52.8349	-245.831	-11.6377	-2.08988	-239.334	-20.6756	-26.4982	-219.998	-18.905	-45.5287	-239.43	-27.898	13.6376	-238.153	-37.6295	-5.59476	-230.822	-46.1077	-26.4446	-247.171	-3.07919	42.8322	-245.075	1.78511	67.3013	-250.806	23.8562	49.4107	
201	1.675	-219.784	45.8222	40.3608	-200.718	47.7323	17.949	-195.119	41.6993	-3.02276	-188.337	32.0957	-22.3265	-243.512	25.3477	-15.5241	-228.385	21.9938	-40.6656	-208.17	19.7995	-49.9905	-249.514	6.73727	-15.468	-235.134	-0.493023	-42.7608	-212.177	-6.79314	-54.9386	-248.695	-15.1277	-4.41194	-239.295	-21.5525	-29.3231	-220.733	-22.1064	-46.8885	-243.134	-29.1323	13.0788	-241.427	-39.6474	-8.44739	-233.809	-43.479	-25.4657	-249.837	-1.91721	39.1258	-245.28	6.74764	67.9054	-249.686	27.6283	49.7153	
202	1.68333	-215.109	46.0987	44.7623	-202.13	40.8976	16.0787	-193.765	38.346	-4.36773	-184.938	31.392	-24.0181	-241.186	31.341	-13.9591	-226.504	26.3039	-40.4567	-205.104	17.0146	-47.7991	-249.238	10.3759	-13.6807	-237.53	3.08406	-43.8775	-215.877	-9.04737	-54.2824	-249.767	-7.14926	-4.80946	-244.485	-14.3525	-27.173	-226.702	-18.8538	-44.4934	-246.449	-26.322	9.97903	-246.497	-34.5265	-5.20458	-239.1	-41.4563	-26.1609	-249.123	3.1417	38.3825	-247.063	9.56667	65.6305	-246.658	28.9516	44.9032	
203	1.69167	-212.483	46.1342	41.1819	-195.499	42.6907	14.3965	-188.444	38.3868	-6.61908	-185.393	27.8261	-22.7623	-239.182	30.564	-15.0372	-225.523	28.1657	-38.2907	-201.791	15.2849	-46.2865	-248.628	11.7444	-13.1609	-239.338	5.18068	-42.1313	-216.345	-4.07434	-55.4869	-250.672	-8.42602	-3.07856	-243.485	-13.6916	-31.3621	-226.825	-21.3483	-47.3749	-247.183	-21.9137	13.7859	-248.866	-31.8158	-8.70883	-242.138	-35.9743	-25.7451	-249.771	2.4208	38.8878	-246.625	6.83609	67.715	-243.217	33.9966	44.9967	
204	1.7	-210.536	42.3409	43.104	-192.986	40.8608	16.7042	-186.804	34.7018	-0.75578	-182.075	25.0812	-24.767	-233.493	35.2816	-18.5704	-221.109	22.9611	-38.219	-196.232	12.3919	-44.5241	-248.961	12.31	-13.5824	-241.958	5.84934	-39.8358	-218.84	-8.39636	-54.0952	-251.06	-2.13715	-3.974	-245.206	-11.2857	-31.1801	-231.708	-18.3978	-44.7865	-249.903	-19.4417	13.5934	-251.629	-28.6199	-7.79125	-245.096	-36.3337	-26.636	-248.75	9.02594	40.1298	-244.509	12.9326	65.7067	-241.772	34.5647	47.7299	
205	1.70833	-205.421	44.3804	42.5014	-189.495	38.6741	20.8038	-185.551	31.9297	-4.55958	-178.503	25.4024	-23.1269	-232.478	35.0449	-13.3882	-216.5	27.6397	-37.8418	-196.409	12.2157	-43.7884	-247.209	17.7856	-14.0068	-241.183	5.88974	-40.1645	-217.2	-7.30818	-55.2598	-253.763	-3.57797	-5.72055	-247.417	-11.0502	-30.8033	-232.806	-13.0834	-45.579	-253.01	-16.4972	8.75016	-252.873	-25.9388	-8.57774	-248.252	-28.9682	-27.7412	-250.104	10.801	40.7327	-245.115	9.10173	67.1655	-239.967	33.518	48.5554	
206	1.71667	-204.987	41.3429	42.5298	-188.911	35.9832	19.8301	-184.728	29.5106	-2.41881	-177.986	22.8004	-25.7481	-231.908	32.5645	-14.1732	-213.913	25.1449	-37.7663	-193.186	11.8935	-42.8208	-245.624	18.3318	-15.5448	-239.558	5.55643	-40.3333	-217.374	-4.1852	-54.9917	-252.469	-1.98707	-2.76037	-247.77	-7.40113	-29.8973	-230.321	-16.9027	-46.6493	-250.547	-16.2021	12.9801	-252.882	-23.5757	-9.80728	-246.467	-28.0857	-32.3331	-249.103	11.613	40.5014	-244.674	10.1726	69.2582	-237.228	35.6091	45.9702	
207	1.725	-204.64	40.1577	45.1776	-187.472	35.002	20.2826	-183.186	30.3946	-3.98078	-176.182	24.0069	-22.9637	-229.64	33.506	-16.019	-214.377	25.6046	-35.5258	-193.904	11.1225	-40.2772	-245.905	16.2921	-15.4862	-239.385	6.96251	-40.0897	-216.788	-7.31867	-55.7026	-250.968	2.15075	-5.27728	-248.767	-9.89803	-27.6851	-231.94	-13.7079	-44.643	-252.875	-19.5168	11.3222	-254.55	-26.3716	-9.02808	-245.437	-32.3979	-29.8445	-247.447	10.7316	41.6313	-245.522	11.8066	66.2873	-236.296	33.9383	50.3793	
208	1.73333	-202.982	39.824	46.3986	-190.409	33.4057	19.1113	-182.102	30.3661	-4.2753	-177.658	20.9022	-25.8124	-230.108	31.0252	-15.3431	-212.37	24.9441	-36.7283	-193.013	9.58688	-39.693	-246.287	16.0578	-12.9902	-237.359	7.57938	-40.3369	-214.309	-9.48619	-55.5671	-253.001	-2.14158	-2.28434	-245.697	-6.56404	-31.0625	-229.57	-15.4876	-46.8871	-252.368	-14.9576	10.0578	-252.803	-24.603	-11.917	-247.942	-29.4474	-26.9856	-246.15	9.59898	43.5587	-243.55	10.0869	67.9861	-237.021	31.9715	49.5655	
209	1.74167	-203.286	39.2215	45.6356	-188.311	34.065	21.534	-184.047	28.4128	-6.24258	-180.071	20.2087	-23.4991	-229.697	33.0159	-12.3867	-213.644	21.7316	-34.3073	-191.71	5.64878	-37.3608	-246.758	14.2485	-13.2044	-237.344	5.53848	-41.6059	-213.847	-4.52737	-56.3141	-251.459	1.11159	-2.38308	-247.945	-5.35048	-28.8426	-229.12	-14.3572	-46.9096	-252.356	-18.539	11.5566	-254	-27.3353	-9.16205	-245.493	-31.1404	-30.7158	-248.026	8.67972	43.0042	-243.273	13.2837	63.7095	-237.892	32.7128	51.1615	
210	1.75	-205.207	40.1257	42.7267	-188.813	33.13	19.9416	-185.642	26.7192	-3.54294	-179.798	19.424	-25.2087	-227.413	34.5543	-16.6864	-209.872	22.8249	-35.9149	-192.027	6.50063	-36.6305	-245.793	15.4279	-15.5223	-237.978	8.84493	-38.7315	-212.888	-8.42719	-55.4228	-252.07	-2.49825	-3.30288	-246.969	-5.46828	-27.1273	-229.963	-13.7731	-44.9099	-253.091	-19.2467	13.8698	-254.052	-26.731	-9.20424	-246.877	-29.0386	-29.733	-247.727	10.95	45.0767	-241.527	10.2909	69.5198	-237.363	34.0443	46.9118	
211	1.75833	-205.1	38.1558	44.6966	-190.908	32.2754	17.0716	-183.758	27.5329	-5.76662	-180.36	19.0503	-21.3579	-226.765	34.2053	-17.2963	-212.398	21.3744	-33.9832	-188.706	4.07804	-36.2152	-246.412	14.0132	-13.3146	-238.455	7.74312	-38.4645	-213.932	-9.22349	-54.9157	-253.137	-3.04439	-5.82948	-246.658	-8.45126	-30.3549	-227.837	-15.7605	-46.6315	-253.594	-18.5617	10.4586	-253.359	-24.9918	-7.1402	-248.357	-28.7313	-27.9193	-249.547	7.14731	42.3678	-243.318	9.40736	65.8344	-237.489	36.9609	47.7844	
212	1.76667	-202.501	41.9753	43.4316	-185.674	36.0371	20.1249	-183.9	27.5486	-4.90558	-179.949	18.519	-21.3922	-226.301	32.6527	-15.7901	-211.301	22.5018	-33.8325	-187.872	7.22023	-35.9299	-243.211	18.2236	-12.0987	-237.622	4.14293	-38.6456	-214.062	-5.98899	-54.9872	-251.237	-1.28483	-3.09408	-244.806	-8.32983	-30.3704	-231.25	-14.9399	-44.1979	-249.859	-16.8571	14.5126	-253.631	-25.4722	-7.17153	-247.706	-33.5548	-25.2846	-247.53	6.00835	44.1485	-243.277	9.61591	69.3457	-237.142	30.487	47.7135	
213	1.775	-205.295	38.1682	46.9247	-185.384	35.4447	19.6985	-185.249	27.4638	-3.29994	-179.4	19.2706	-26.0965	-226.908	30.0844	-17.2049	-210.322	21.8948	-33.7241	-191.742	5.60696	-35.2063	-244.396	14.4283	-16.9507	-237.964	6.68456	-38.372	-217.141	-8.70854	-53.9077	-251.125	-3.21926	-2.51621	-245.949	-9.09538	-29.1214	-231.389	-13.7605	-44.5694	-250.116	-17.9161	11.8465	-252.482	-24.9773	-9.41532	-248.307	-33.9692	-29.2589	-247.972	5.27014	43.2472	-242.131	8.44314	67.6983	-235.209	33.8007	50.0197	
214	1.78333	-205.088	39.4913	45.6515	-188.894	33.9161	17.3021	-185.07	26.8128	-4.39178	-179.859	18.793	-21.0462	-227.102	31.6488	-16.8199	-211.828	19.4773	-32.7907	-186.753	6.4348	-34.3039	-244.367	15.5103	-12.9849	-234.249	8.06853	-42.0741	-213.619	-5.14169	-56.0436	-250.584	-4.63944	-2.41712	-247.177	-10.805	-26.6562	-228.94	-17.6832	-45.3417	-250.278	-19.3144	12.3653	-251.751	-28.3751	-10.0918	-246.984	-36.1405	-30.063	-249.064	8.03208	41.2195	-241.619	10.6965	66.6341	-239.059	32.3722	49.3381	
215	1.79167	-205.96	37.6807	43.5124	-188.905	34.4133	18.5103	-184.192	27.438	-3.83944	-179.326	19.9013	-19.9121	-229.283	31.0779	-12.0403	-214.104	20.4464	-32.8378	-191.267	7.46025	-34.757	-245.302	12.8176	-15.7227	-237.367	7.67705	-38.6996	-213.226	-6.61602	-56.9924	-251.684	-2.23606	-6.83814	-247.103	-12.5144	-27.0751	-230.771	-14.8412	-44.9598	-252.096	-21.0866	11.3457	-253.087	-26.6537	-7.41599	-248.19	-33.9056	-29.7334	-247.647	5.91196	41.7163	-242.617	13.3804	68.2325	-239.364	33.6389	46.3288	
216	1.8	-205.591	38.5921	47.6825	-189.954	33.3964	16.7903	-183.843	28.9514	-2.59445	-181.395	19.5626	-22.7505	-229.682	32.2657	-13.7963	-211.614	19.1657	-34.4448	-190.373	8.46226	-36.2335	-244.484	17.9524	-13.3415	-236.405	8.44559	-42.2234	-215.05	-8.18057	-55.1808	-250.36	-1.47105	-2.06265	-246.52	-11.226	-28.1507	-229.48	-14.8071	-46.3854	-252.193	-17.0906	10.8208	-253.776	-25.4148	-6.75732	-248.99	-31.2062	-29.3275	-248.339	10.6066	41.2008	-243.776	9.77164	65.8455	-238.557	32.7008	47.5262	
217	1.80833	-204.997	41.5758	42.2851	-190.107	34.7716	16.3312	-184.677	28.8074	-1.24983	-183.083	19.4559	-21.2272	-228.653	33.1774	-15.4167	-215.373	22.1104	-32.8763	-189.305	10.7046	-35.9476	-246.354	16.5481	-17.6704	-237.704	9.35716	-40.8822	-216.642	-5.69265	-55.8833	-251.72	-1.75859	-5.63142	-248.17	-11.3698	-27.0471	-228.972	-14.0687	-47.5386	-250.531	-17.4985	13.0428	-254.216	-28.5402	-5.82278	-246.973	-32.5708	-29.3147	-249.235	10.9024	41.2945	-242.508	11.0196	67.2137	-239.113	32.8894	47.613	
218	1.81667	-205.724	40.1556	42.9849	-189.86	35.0442	19.3771	-186.714	28.8472	-3.44815	-182.387	19.4841	-22.993	-229.647	32.8549	-13.5193	-215.521	22.1281	-32.5138	-189.405	10.0766	-35.9526	-247.921	15.302	-15.9708	-239.636	7.29499	-38.5675	-216.012	-6.46909	-55.4774	-252.193	-2.10608	-2.00267	-247.524	-8.2257	-29.6424	-232.783	-15.4574	-44.2052	-251.668	-19.0293	15.2168	-253.889	-24.2623	-9.23534	-248.975	-31.4915	-29.9814	-249.113	10.2714	42.3042	-245.684	10.6251	66.8367	-240.108	33.5447	50.6787	
